<svg id="Calque_1" data-name="Calque 1" xmlns="http://www.w3.org/2000/svg" viewBox="0 0 300 131"><defs><style>.cls-1{fill:#e5312b;}.cls-2{fill:#fff;}.cls-3{fill:#0d4c80;}</style></defs><title>cresus-logo</title><polygon class="cls-1" points="116.3 47.95 116.3 27.99 138.79 10.77 138.79 30.69 116.3 47.95"/><polygon class="cls-2" points="129.96 27.06 134.16 27.06 134.16 30.71 129.96 30.71 129.96 34.9 126.32 34.9 126.32 30.71 122.12 30.71 122.12 27.06 126.32 27.06 126.32 22.86 129.96 22.86 129.96 27.06"/><polygon class="cls-3" points="20.96 104 18.66 104 18.66 123.4 28.81 123.4 28.81 121.39 20.96 121.39 20.96 104"/><path class="cls-3" d="M41.15,110.79a4.82,4.82,0,0,0-1.77-1.58,5.49,5.49,0,0,0-2.63-.59,5.2,5.2,0,0,0-2.6.65,6,6,0,0,0-1.94,1.7A8.27,8.27,0,0,0,31,113.36a9.16,9.16,0,0,0-.42,2.74,11.62,11.62,0,0,0,.38,3,6.61,6.61,0,0,0,1.19,2.42,5.72,5.72,0,0,0,2.08,1.6,7.31,7.31,0,0,0,3,.58,15.22,15.22,0,0,0,2.29-.18,9,9,0,0,0,2.19-.58l-.17-2a6.05,6.05,0,0,1-.92.43,10.93,10.93,0,0,1-1.06.32c-.37.08-.74.15-1.1.2a7.6,7.6,0,0,1-1,.07,4.57,4.57,0,0,1-2-.42A4.25,4.25,0,0,1,34,120.43a4.83,4.83,0,0,1-.89-1.68,7,7,0,0,1-.29-2h9.69v-.87a11.81,11.81,0,0,0-.32-2.77A6.91,6.91,0,0,0,41.15,110.79Zm-8.36,4.38a5.62,5.62,0,0,1,.25-1.59A5.13,5.13,0,0,1,33.8,112a4.24,4.24,0,0,1,1.25-1.21,3.1,3.1,0,0,1,1.73-.48,3,3,0,0,1,1.67.45,3.42,3.42,0,0,1,1.09,1.15,5.62,5.62,0,0,1,.6,1.56,8.26,8.26,0,0,1,.18,1.7Z"/><path class="cls-3" d="M52.06,116.14a8.27,8.27,0,0,0-1.69-.91q-.91-.37-1.68-.75a5.56,5.56,0,0,1-1.3-.81,1.41,1.41,0,0,1-.52-1.12,2.09,2.09,0,0,1,.26-1.09,2,2,0,0,1,.7-.67,3.33,3.33,0,0,1,1-.35,5.33,5.33,0,0,1,1.05-.1,7.81,7.81,0,0,1,1.65.19,7.92,7.92,0,0,1,1.6.51l.18-1.77a8.64,8.64,0,0,0-1.78-.48,10.48,10.48,0,0,0-1.83-.17,6.83,6.83,0,0,0-1.79.24,5.14,5.14,0,0,0-1.6.71,3.83,3.83,0,0,0-1.15,1.22,3.49,3.49,0,0,0-.43,1.79,3,3,0,0,0,.52,1.82,4.73,4.73,0,0,0,1.29,1.19,9.83,9.83,0,0,0,1.69.83,15.6,15.6,0,0,1,1.69.75,5.42,5.42,0,0,1,1.29,1,2,2,0,0,1,.53,1.43,2,2,0,0,1-.9,1.82,3.77,3.77,0,0,1-2.13.59,9.52,9.52,0,0,1-2-.21,7.56,7.56,0,0,1-1.86-.69l-.17,2a9,9,0,0,0,2,.52,14.83,14.83,0,0,0,2.1.15,6.92,6.92,0,0,0,1.87-.26,5,5,0,0,0,1.63-.8,4.09,4.09,0,0,0,1.15-1.33,4.11,4.11,0,0,0-.08-3.85A5,5,0,0,0,52.06,116.14Z"/><rect class="cls-3" x="64.93" y="102.43" width="2.12" height="20.97"/><path class="cls-3" d="M82.26,110.76a5.79,5.79,0,0,0-2.12-1.57,7.25,7.25,0,0,0-3-.56,6.74,6.74,0,0,0-2.86.58,6,6,0,0,0-2.14,1.6,7,7,0,0,0-1.32,2.37,9.16,9.16,0,0,0-.45,2.92,10.07,10.07,0,0,0,.42,3,7.07,7.07,0,0,0,1.28,2.43,5.91,5.91,0,0,0,2.12,1.64,7.55,7.55,0,0,0,5.9,0,5.71,5.71,0,0,0,2.11-1.64,7.24,7.24,0,0,0,1.28-2.43,9.74,9.74,0,0,0,.44-3,10.06,10.06,0,0,0-.42-3A6.92,6.92,0,0,0,82.26,110.76Zm-.87,7.43a6.22,6.22,0,0,1-.79,1.88,4.37,4.37,0,0,1-1.39,1.35,3.82,3.82,0,0,1-2,.53,3.76,3.76,0,0,1-2-.53,4.44,4.44,0,0,1-1.41-1.35,5.76,5.76,0,0,1-.79-1.88,9.33,9.33,0,0,1-.25-2.09,8.87,8.87,0,0,1,.25-2.06,5.63,5.63,0,0,1,.79-1.84,4.22,4.22,0,0,1,1.41-1.31,3.94,3.94,0,0,1,2-.49,4.17,4.17,0,0,1,2.07.48,4,4,0,0,1,1.38,1.28A5.39,5.39,0,0,1,81.4,114a8.77,8.77,0,0,1,0,4.2Z"/><path class="cls-3" d="M96.86,111.36A4.82,4.82,0,0,0,95,109.29a5.29,5.29,0,0,0-2.69-.67,5.43,5.43,0,0,0-2.71.63,5.37,5.37,0,0,0-1.84,1.67,7.21,7.21,0,0,0-1,2.4,12.22,12.22,0,0,0-.32,2.78,11.35,11.35,0,0,0,.31,2.65,6.82,6.82,0,0,0,1,2.34,5.41,5.41,0,0,0,1.82,1.67,5.34,5.34,0,0,0,2.72.64,5.23,5.23,0,0,0,2.58-.67,4.65,4.65,0,0,0,1.89-1.89v1.86a8.46,8.46,0,0,1-.26,2.2,4.76,4.76,0,0,1-.83,1.74,3.61,3.61,0,0,1-1.47,1.16,5.17,5.17,0,0,1-2.22.43,8.34,8.34,0,0,1-2.17-.28,9.19,9.19,0,0,1-2-.77l-.18,2.07a19.26,19.26,0,0,0,2.24.55,13.27,13.27,0,0,0,2.26.2,8.22,8.22,0,0,0,3.05-.51,5.32,5.32,0,0,0,2.1-1.47,6.1,6.1,0,0,0,1.23-2.31,10.93,10.93,0,0,0,.39-3V108.92h-2ZM96.6,118a5.87,5.87,0,0,1-.68,1.78,4,4,0,0,1-1.26,1.31,3.48,3.48,0,0,1-1.94.51,3.54,3.54,0,0,1-2-.51,3.79,3.79,0,0,1-1.22-1.3,5.49,5.49,0,0,1-.62-1.76,10.4,10.4,0,0,1-.17-1.9,11.53,11.53,0,0,1,.17-2,6,6,0,0,1,.62-1.84,3.41,3.41,0,0,1,3.24-1.85,3.2,3.2,0,0,1,1.89.54,4.29,4.29,0,0,1,1.25,1.36,6.25,6.25,0,0,1,.69,1.84,8.86,8.86,0,0,1,.22,2A9.53,9.53,0,0,1,96.6,118Z"/><rect class="cls-3" x="103.08" y="108.91" width="2.12" height="14.48"/><rect class="cls-3" x="103.08" y="103.16" width="2.12" height="2.53"/><path class="cls-3" d="M112.14,112a4.7,4.7,0,0,1,1.63-1.2,5.55,5.55,0,0,1,2.28-.43,6.3,6.3,0,0,1,1.56.2,9.18,9.18,0,0,1,1.47.53l.17-1.89a10.1,10.1,0,0,0-1.74-.45,10,10,0,0,0-1.81-.17,7.47,7.47,0,0,0-3,.57,6.54,6.54,0,0,0-2.24,1.56,6.74,6.74,0,0,0-1.43,2.37,8.75,8.75,0,0,0-.5,3,9.22,9.22,0,0,0,.46,3,6.7,6.7,0,0,0,1.35,2.43,6.35,6.35,0,0,0,2.19,1.63,6.94,6.94,0,0,0,3,.6,14.75,14.75,0,0,0,1.89-.12,9.61,9.61,0,0,0,1.86-.43l-.14-1.89a9.41,9.41,0,0,1-1.56.49,7.43,7.43,0,0,1-1.64.18,4.92,4.92,0,0,1-2.2-.48,4.66,4.66,0,0,1-1.58-1.3,5.53,5.53,0,0,1-1-1.87,7.41,7.41,0,0,1-.32-2.2,7.5,7.5,0,0,1,.32-2.27A4.88,4.88,0,0,1,112.14,112Z"/><rect class="cls-3" x="122.31" y="108.91" width="2.12" height="14.48"/><rect class="cls-3" x="122.31" y="103.16" width="2.12" height="2.53"/><path class="cls-3" d="M138.34,110.79a4.82,4.82,0,0,0-1.77-1.58,5.52,5.52,0,0,0-2.63-.59,5.2,5.2,0,0,0-2.6.65,5.86,5.86,0,0,0-1.94,1.7,8.27,8.27,0,0,0-1.21,2.39,9.16,9.16,0,0,0-.42,2.74,11.62,11.62,0,0,0,.38,3,6.61,6.61,0,0,0,1.19,2.42,5.72,5.72,0,0,0,2.08,1.6,7.31,7.31,0,0,0,3,.58,15,15,0,0,0,2.28-.18,9,9,0,0,0,2.2-.58l-.17-2a6.05,6.05,0,0,1-.92.43,10.93,10.93,0,0,1-1.06.32c-.37.08-.74.15-1.11.2a7.5,7.5,0,0,1-1,.07,4.56,4.56,0,0,1-2-.42,4.25,4.25,0,0,1-1.47-1.15,4.65,4.65,0,0,1-.88-1.68,6.7,6.7,0,0,1-.3-2h9.69v-.87a11.81,11.81,0,0,0-.32-2.77A7.11,7.11,0,0,0,138.34,110.79ZM130,115.17a6,6,0,0,1,.25-1.59A5.13,5.13,0,0,1,131,112a4.37,4.37,0,0,1,1.25-1.21,3.1,3.1,0,0,1,1.73-.48,3,3,0,0,1,1.67.45,3.42,3.42,0,0,1,1.09,1.15,5.62,5.62,0,0,1,.6,1.56,8.28,8.28,0,0,1,.19,1.7Z"/><rect class="cls-3" x="142.92" y="102.43" width="2.12" height="20.97"/><path class="cls-3" d="M155.59,116.14a8.83,8.83,0,0,0-1.69-.91q-.92-.37-1.68-.75a5.56,5.56,0,0,1-1.3-.81,1.41,1.41,0,0,1-.52-1.12,2,2,0,0,1,.26-1.09,2,2,0,0,1,.7-.67,3.33,3.33,0,0,1,1-.35,5.33,5.33,0,0,1,1.05-.1,7.81,7.81,0,0,1,1.65.19,8.13,8.13,0,0,1,1.6.51l.17-1.77a8.55,8.55,0,0,0-1.77-.48,10.48,10.48,0,0,0-1.83-.17,6.83,6.83,0,0,0-1.79.24,5.14,5.14,0,0,0-1.6.71,3.83,3.83,0,0,0-1.15,1.22,3.49,3.49,0,0,0-.43,1.79,3,3,0,0,0,.52,1.82,4.73,4.73,0,0,0,1.29,1.19,9.83,9.83,0,0,0,1.69.83,15.6,15.6,0,0,1,1.69.75,5.42,5.42,0,0,1,1.29,1,2,2,0,0,1,.53,1.43,2,2,0,0,1-.91,1.82,3.71,3.71,0,0,1-2.12.59,9.52,9.52,0,0,1-2-.21,7.41,7.41,0,0,1-1.86-.69l-.17,2a9,9,0,0,0,2,.52,14.83,14.83,0,0,0,2.1.15,6.92,6.92,0,0,0,1.87-.26,5,5,0,0,0,1.63-.8,4.09,4.09,0,0,0,1.15-1.33,3.7,3.7,0,0,0,.44-1.83,3.61,3.61,0,0,0-.53-2A4.84,4.84,0,0,0,155.59,116.14Z"/><path class="cls-3" d="M180,118.8V102.43h-2.12v8.93a4.31,4.31,0,0,0-1.77-2,5.05,5.05,0,0,0-2.59-.73,5.64,5.64,0,0,0-2.77.63,5.28,5.28,0,0,0-1.84,1.67,7,7,0,0,0-1,2.4,11.79,11.79,0,0,0,0,5.54,7.61,7.61,0,0,0,1,2.44,5.54,5.54,0,0,0,1.82,1.75,5.81,5.81,0,0,0,5.42,0A4.74,4.74,0,0,0,178,121l.17,2.42h2c0-.76-.08-1.51-.11-2.27S180,119.6,180,118.8Zm-2.27-.69a6.09,6.09,0,0,1-.68,1.86,4.25,4.25,0,0,1-1.24,1.39,3.22,3.22,0,0,1-1.93.56,3.39,3.39,0,0,1-2-.54,4.15,4.15,0,0,1-1.23-1.37,5.53,5.53,0,0,1-.63-1.86,11.75,11.75,0,0,1-.18-2,12.56,12.56,0,0,1,.16-2,5.7,5.7,0,0,1,.61-1.84,3.4,3.4,0,0,1,3.23-1.85,3.28,3.28,0,0,1,1.91.54,4.21,4.21,0,0,1,1.26,1.36,6.27,6.27,0,0,1,.7,1.84,9.5,9.5,0,0,1,.22,2A9.81,9.81,0,0,1,177.76,118.11Z"/><path class="cls-3" d="M194,110.79a4.93,4.93,0,0,0-1.78-1.58,5.47,5.47,0,0,0-2.63-.59,5.2,5.2,0,0,0-2.6.65A6,6,0,0,0,185,111a8,8,0,0,0-1.2,2.39,9.16,9.16,0,0,0-.42,2.74,11.62,11.62,0,0,0,.37,3,6.47,6.47,0,0,0,1.2,2.42,5.6,5.6,0,0,0,2.07,1.6,7.33,7.33,0,0,0,3,.58,15.19,15.19,0,0,0,2.28-.18,8.92,8.92,0,0,0,2.19-.58l-.17-2a6.05,6.05,0,0,1-.92.43,10.93,10.93,0,0,1-1.06.32c-.37.08-.74.15-1.1.2a7.6,7.6,0,0,1-1,.07,4.57,4.57,0,0,1-2-.42,4.25,4.25,0,0,1-1.47-1.15,4.81,4.81,0,0,1-.88-1.68,6.69,6.69,0,0,1-.29-2h9.68v-.87a11.81,11.81,0,0,0-.32-2.77A7.1,7.1,0,0,0,194,110.79Zm-8.36,4.38a5.62,5.62,0,0,1,.25-1.59,5.11,5.11,0,0,1,.75-1.58,4.5,4.5,0,0,1,1.25-1.21,3.12,3.12,0,0,1,1.73-.48,3,3,0,0,1,1.67.45,3.42,3.42,0,0,1,1.09,1.15,5.62,5.62,0,0,1,.6,1.56,7.64,7.64,0,0,1,.19,1.7Z"/><path class="cls-3" d="M216,111.36a4.82,4.82,0,0,0-1.85-2.07,5.31,5.31,0,0,0-2.69-.67,5.47,5.47,0,0,0-2.72.63,5.25,5.25,0,0,0-1.83,1.67,7,7,0,0,0-1,2.4,11.68,11.68,0,0,0-.32,2.78,11.9,11.9,0,0,0,.3,2.65,7,7,0,0,0,1,2.34,5.17,5.17,0,0,0,4.53,2.31,5.26,5.26,0,0,0,2.59-.67,4.77,4.77,0,0,0,1.89-1.89v1.86a8.91,8.91,0,0,1-.26,2.2,4.76,4.76,0,0,1-.83,1.74,3.64,3.64,0,0,1-1.48,1.16,5.14,5.14,0,0,1-2.22.43,8.26,8.26,0,0,1-2.16-.28,9.47,9.47,0,0,1-2-.77l-.17,2.07a19.1,19.1,0,0,0,2.23.55,13.39,13.39,0,0,0,2.27.2,8.22,8.22,0,0,0,3.05-.51,5.32,5.32,0,0,0,2.1-1.47,6.09,6.09,0,0,0,1.22-2.31,10.93,10.93,0,0,0,.39-3V108.92h-2Zm-.26,6.64a5.89,5.89,0,0,1-.69,1.78,3.85,3.85,0,0,1-1.26,1.31,4,4,0,0,1-3.92,0,3.79,3.79,0,0,1-1.22-1.3A5.26,5.26,0,0,1,208,118a10.43,10.43,0,0,1-.18-1.9,11.55,11.55,0,0,1,.18-2,5.71,5.71,0,0,1,.62-1.84,3.4,3.4,0,0,1,3.23-1.85,3.21,3.21,0,0,1,1.9.54,4.29,4.29,0,0,1,1.25,1.36,6.54,6.54,0,0,1,.69,1.84,8.86,8.86,0,0,1,.22,2A9.53,9.53,0,0,1,215.72,118Z"/><path class="cls-3" d="M231.9,110.79a4.93,4.93,0,0,0-1.78-1.58,5.47,5.47,0,0,0-2.63-.59,5.2,5.2,0,0,0-2.6.65A5.83,5.83,0,0,0,223,111a7.8,7.8,0,0,0-1.21,2.39,9.16,9.16,0,0,0-.42,2.74,11.2,11.2,0,0,0,.38,3,6.45,6.45,0,0,0,1.19,2.42,5.56,5.56,0,0,0,2.08,1.6,7.25,7.25,0,0,0,3,.58,15,15,0,0,0,2.28-.18,9,9,0,0,0,2.2-.58l-.18-2a6.4,6.4,0,0,1-.91.43,11.14,11.14,0,0,1-1.07.32c-.36.08-.73.15-1.1.2a7.6,7.6,0,0,1-1,.07,4.5,4.5,0,0,1-2-.42,4.08,4.08,0,0,1-1.47-1.15,4.67,4.67,0,0,1-.89-1.68,6.69,6.69,0,0,1-.29-2h9.68v-.87a11.31,11.31,0,0,0-.32-2.77A6.89,6.89,0,0,0,231.9,110.79Zm-8.36,4.38a5.62,5.62,0,0,1,.25-1.59,5.11,5.11,0,0,1,.75-1.58,4.5,4.5,0,0,1,1.25-1.21,3.12,3.12,0,0,1,1.73-.48,3,3,0,0,1,1.67.45,3.42,3.42,0,0,1,1.09,1.15,5.33,5.33,0,0,1,.6,1.56,7.64,7.64,0,0,1,.19,1.7Z"/><path class="cls-3" d="M242.8,116.14a8.46,8.46,0,0,0-1.68-.91c-.61-.25-1.17-.5-1.69-.75a5.7,5.7,0,0,1-1.29-.81,1.42,1.42,0,0,1-.53-1.12,2,2,0,0,1,.27-1.09,1.93,1.93,0,0,1,.69-.67,3.33,3.33,0,0,1,1-.35,5.33,5.33,0,0,1,1.05-.1,7.9,7.9,0,0,1,1.66.19,8.13,8.13,0,0,1,1.6.51l.17-1.77a8.55,8.55,0,0,0-1.77-.48,10.48,10.48,0,0,0-1.83-.17,6.77,6.77,0,0,0-1.79.24,4.94,4.94,0,0,0-1.6.71,3.72,3.72,0,0,0-1.15,1.22,3.49,3.49,0,0,0-.44,1.79,3.06,3.06,0,0,0,.52,1.82,4.78,4.78,0,0,0,1.3,1.19,9.16,9.16,0,0,0,1.69.83,14.6,14.6,0,0,1,1.68.75,5.29,5.29,0,0,1,1.3,1,2,2,0,0,1,.52,1.43,2,2,0,0,1-.9,1.82,3.74,3.74,0,0,1-2.13.59,9.5,9.5,0,0,1-2-.21,7.41,7.41,0,0,1-1.86-.69l-.18,2a9,9,0,0,0,2,.52,14.8,14.8,0,0,0,2.09.15,7,7,0,0,0,1.88-.26,5.06,5.06,0,0,0,1.63-.8,4.21,4.21,0,0,0,1.15-1.33,3.7,3.7,0,0,0,.43-1.83,3.61,3.61,0,0,0-.52-2A4.88,4.88,0,0,0,242.8,116.14Z"/><path class="cls-3" d="M253.68,121.78a3.2,3.2,0,0,1-.83.11,1.52,1.52,0,0,1-1.5-.73,3.79,3.79,0,0,1-.36-1.69v-8.9h3.29v-1.65H251v-4l-2.09.73v3.26h-2.74v1.65h2.74v8.35a15.59,15.59,0,0,0,.1,1.86,4.42,4.42,0,0,0,.45,1.53,2.53,2.53,0,0,0,1,1,3.58,3.58,0,0,0,1.77.38,6.91,6.91,0,0,0,1.19-.1,5.09,5.09,0,0,0,1.17-.34l-.12-1.77A4.44,4.44,0,0,1,253.68,121.78Z"/><rect class="cls-3" x="257.33" y="108.91" width="2.13" height="14.48"/><rect class="cls-3" x="257.33" y="103.16" width="2.13" height="2.53"/><path class="cls-3" d="M274.66,110.76a5.79,5.79,0,0,0-2.12-1.57,7.22,7.22,0,0,0-3-.56,6.74,6.74,0,0,0-2.86.58,6,6,0,0,0-2.14,1.6,7,7,0,0,0-1.32,2.37,9.16,9.16,0,0,0-.45,2.92,10.07,10.07,0,0,0,.42,3,7.07,7.07,0,0,0,1.28,2.43,5.91,5.91,0,0,0,2.12,1.64,7.58,7.58,0,0,0,5.91,0,5.76,5.76,0,0,0,2.1-1.64,7.24,7.24,0,0,0,1.28-2.43,9.74,9.74,0,0,0,.44-3,10.06,10.06,0,0,0-.42-3A6.92,6.92,0,0,0,274.66,110.76Zm-.87,7.43a6.22,6.22,0,0,1-.79,1.88,4.37,4.37,0,0,1-1.39,1.35,3.82,3.82,0,0,1-2,.53,3.76,3.76,0,0,1-2-.53,4.54,4.54,0,0,1-1.41-1.35,5.76,5.76,0,0,1-.79-1.88,9.33,9.33,0,0,1-.25-2.09,8.87,8.87,0,0,1,.25-2.06,5.63,5.63,0,0,1,.79-1.84,4.31,4.31,0,0,1,1.41-1.31,3.94,3.94,0,0,1,2-.49,4.17,4.17,0,0,1,2.07.48,4.07,4.07,0,0,1,1.39,1.28,5.82,5.82,0,0,1,.78,1.83,9.29,9.29,0,0,1,.24,2.11A8.8,8.8,0,0,1,273.79,118.19Z"/><path class="cls-3" d="M290.09,110.27a3.9,3.9,0,0,0-1.5-1.21,5.45,5.45,0,0,0-2.32-.44,5,5,0,0,0-4.69,2.8l-.08-2.5h-1.95c.06.56.1,1.13.12,1.7s0,1.14,0,1.7V123.4h2.13v-7.79a9.11,9.11,0,0,1,.19-1.89,4.61,4.61,0,0,1,.65-1.66,3.62,3.62,0,0,1,1.22-1.18,3.67,3.67,0,0,1,1.89-.45,3.45,3.45,0,0,1,1.69.36,2.66,2.66,0,0,1,1,1,3.8,3.8,0,0,1,.46,1.39,11.08,11.08,0,0,1,.12,1.66v8.58h2.09v-9a11.16,11.16,0,0,0-.23-2.31A4.77,4.77,0,0,0,290.09,110.27Z"/><path class="cls-3" d="M227.14,71.34c0,5.73-9,8.25-9,1.21V41.88H199.92V76.72c0,8.25,5.1,13.63,13.7,13.63,9.83,0,13.52-6.25,14.68-8.5v7.53h17.07V41.88H227.14Z"/><path class="cls-3" d="M174.14,57.4c-4-.52-6.49-.91-6.49-3.13,0-2,4-2.51,6.49-2.51,2.08,0,5.55.94,7.37,3.44l15.08.06c-1.82-5.84-6.73-14.43-22.45-14.43-15,0-22,8.49-22,15.53,0,14.35,13.83,15.54,22,16.67,4,.56,7.58.78,7.58,3.26s-4,2.73-7.58,2.73c-4,0-8.95-1.6-9.54-5.29H134.07c-1.35,2.82-2.35,4.36-7.48,4.36-5.78,0-6.43-5.39-6.52-8.81h31.44c1.73-14.6-7.93-28.36-24.92-28.36-11.34,0-19.14,5.64-23.09,13.1V37.8L88.3,49.45V41.88h-18V63.1C64.6,67.52,59,71.78,45.71,71.51,32.69,71.25,22,60.43,22,45.94S32,19.51,45.71,19.51a21.67,21.67,0,0,1,10.34,2.8L65.76,6.05A42.45,42.45,0,0,0,45.71,1C21,1,2,21.38,2,45.94s19.36,45,43.71,45c9.13,0,19-3.36,24.54-7.74v6.18h18v-20l13.11-10a26.22,26.22,0,0,0-.88,6.7c0,12.51,10.14,24.23,26.06,24.23,15.13,0,21.18-7.21,23.86-13.39,2.27,7.14,9.16,13.37,23.69,13.37,14.26,0,23.73-6.77,23.73-16.2C197.87,57.7,178.83,58,174.14,57.4ZM126.59,52c4.64,0,6.26,2.66,6.61,7.91H120C120.13,54.22,121.94,52,126.59,52Z"/><path class="cls-3" d="M270.61,57.4c-4-.52-6.48-.91-6.48-3.13,0-2,4-2.51,6.48-2.51,2.08,0,5.55.94,7.37,3.44l15.08.06c-1.82-5.84-6.73-14.43-22.45-14.43-15,0-22,8.49-22,15.53,0,14.35,13.83,15.54,22,16.67,4,.56,7.58.78,7.58,3.26s-4,2.73-7.58,2.73c-4,0-8.95-1.6-9.54-5.29H246.21c1.12,8.35,7.75,16.54,24.4,16.54,14.27,0,23.74-6.77,23.74-16.2C294.35,57.7,275.3,58,270.61,57.4Z"/><path class="cls-3" d="M297.33,42.81a3.21,3.21,0,0,0-.69-1,3.33,3.33,0,0,0-1-.69,3.33,3.33,0,0,0-2.53,0,3.33,3.33,0,0,0-1,.69,3.21,3.21,0,0,0-.69,1,3.28,3.28,0,0,0,0,2.51,3.37,3.37,0,0,0,.69,1,3.16,3.16,0,0,0,1,.69,3.21,3.21,0,0,0,2.53,0,3.16,3.16,0,0,0,1-.69,3.37,3.37,0,0,0,.69-1,3.16,3.16,0,0,0,0-2.51Zm-.52,2.31a2.78,2.78,0,0,1-1.42,1.47,2.59,2.59,0,0,1-2.09,0,2.85,2.85,0,0,1-.85-.6,2.74,2.74,0,0,1-.57-.87,2.89,2.89,0,0,1-.2-1.06,2.71,2.71,0,0,1,1.62-2.51,2.59,2.59,0,0,1,2.09,0,2.7,2.7,0,0,1,.85.59,2.71,2.71,0,0,1,.77,1.92A2.89,2.89,0,0,1,296.81,45.12Z"/><path class="cls-3" d="M295,44.2a.68.68,0,0,0-.36-.18,1.15,1.15,0,0,0,.35-.1,1.17,1.17,0,0,0,.3-.19.86.86,0,0,0,.2-.26.8.8,0,0,0,.07-.34.93.93,0,0,0-.1-.45,1,1,0,0,0-.27-.3,1,1,0,0,0-.4-.16,1.86,1.86,0,0,0-.48-.06H293.1v3.68h.55V44.21H294a1.23,1.23,0,0,1,.29,0,.4.4,0,0,1,.2.08.5.5,0,0,1,.15.14,1,1,0,0,1,.11.23l.51,1.15h.6l-.62-1.33A.77.77,0,0,0,295,44.2Zm-.61-.47a1.84,1.84,0,0,1-.33,0h-.42V42.61h.41l.35,0a1.32,1.32,0,0,1,.3.08.56.56,0,0,1,.21.16.51.51,0,0,1,.08.28.49.49,0,0,1-.3.49A1.32,1.32,0,0,1,294.4,43.73Z"/></svg>